<?xml version="1.0" encoding="utf-8"?>
<svg xmlns="http://www.w3.org/2000/svg" xmlns:svg="http://www.w3.org/2000/svg" version="1.1" viewBox="0 0 1400 440">
	<title>The titlepage for the Standard Ebooks edition of Kai Lung’s Golden Hours, by Ernest Bramah</title>
	<g aria-label="KAI LUNG’S">
		<path d="M 469.02631,130 433.09649,89.391812 464.16081,52.807016 H 442.82748 L 416.34795,84.33918 V 52.807016 H 398.75731 V 130 h 17.59064 V 97.251461 L 444.79239,130 Z"/>
		<path d="m 516.60964,52.807016 h -16.2807 L 469.17105,130 h 18.90058 l 5.7076,-15.4386 h 29.38012 L 528.86695,130 h 18.90059 z m 0.56141,46.31579 h -17.40351 l 8.60819,-22.45614 h 0.18713 z"/>
		<path d="M 573.27777,52.807016 H 555.68713 V 130 h 17.59064 z"/>
		<path d="M 637.73683,52.807016 H 620.14619 V 130 h 44.16374 v -15.4386 h -26.5731 z"/>
		<path d="m 737.28216,52.807016 h -17.59064 v 44.63158 c 0,12.912284 -3.92983,16.654974 -12.53802,16.654974 -8.60818,0 -12.53801,-3.74269 -12.53801,-16.654974 v -44.63158 h -17.59064 v 49.777774 c 0,19.08772 10.47953,28.81872 30.12865,28.81872 19.64913,0 30.12866,-9.731 30.12866,-28.81872 z"/>
		<path d="m 770.17836,82.093566 h 0.18714 L 801.05556,130 H 818.6462 V 52.807016 h -17.59064 v 47.906434 h -0.18714 L 770.17836,52.807016 H 752.58772 V 130 h 17.59064 z"/>
		<path d="m 904.69153,86.771929 h -35.64912 v 13.567251 h 17.77778 c 0,9.45029 -8.32749,14.87719 -16.74854,14.87719 -10.8538,0 -19.64912,-10.66666 -19.64912,-23.766078 0,-13.380117 8.79532,-24.140352 19.64912,-24.140352 6.83041,0 12.72515,2.713451 17.21637,9.918129 L 898.7968,64.59649 c -6.73685,-8.140351 -16.18714,-13.192983 -29.75439,-13.192983 -21.7076,0 -37.61404,17.871346 -37.61404,40.046785 0,22.081868 16.84211,39.953218 37.61404,39.953218 15.15789,0 31.4386,-8.32749 35.64912,-27.88304 z"/>
		<path d="m 927.01314,51.403507 c -5.33333,0 -9.63743,4.397661 -9.63743,9.824562 0,4.397661 3.18129,7.766082 7.29825,8.795322 -1.30994,7.111111 -6.45614,11.976608 -6.45614,11.976608 l 4.39766,3.461989 c 6.83041,-5.707603 14.22222,-14.035088 14.22222,-24.233919 0,-5.426901 -4.39766,-9.824562 -9.82456,-9.824562 z"/>
		<path d="m 978.04971,51.403507 c -12.44444,0 -25.16959,9.169591 -25.16959,23.578948 0,8.046784 5.4269,15.251462 14.69006,19.836258 9.16959,4.584795 17.40351,7.111107 17.40351,12.725147 0,7.20468 -7.29825,7.57895 -11.1345,7.57895 -8.60819,0 -18.90059,-8.70176 -18.90059,-8.70176 l -8.79532,14.78363 c 0,0 10.94737,10.19883 29.00585,10.19883 15.06432,0 29.09937,-6.45614 29.09937,-24.88889 0,-10.105264 -9.45025,-17.40351 -18.05844,-21.052632 -8.79532,-3.742691 -16.09357,-6.83041 -16.09357,-11.134504 0,-4.210526 3.18129,-6.923976 9.1696,-6.923976 7.95321,0 15.62573,5.333333 15.62573,5.333333 l 7.11108,-14.035088 c 0,0 -9.9181,-7.298246 -23.95319,-7.298246 z"/>
	</g>
	<g aria-label="GOLDEN HOURS">
		<path d="m 352.17324,186.77193 h -35.64912 v 13.56725 h 17.77777 c 0,9.45029 -8.32748,14.87719 -16.74853,14.87719 -10.85381,0 -19.64913,-10.66666 -19.64913,-23.76608 0,-13.38012 8.79532,-24.14035 19.64913,-24.14035 6.83041,0 12.72514,2.71345 17.21637,9.91813 l 11.50877,-12.63158 c -6.73684,-8.14035 -16.18713,-13.19298 -29.75438,-13.19298 -21.70761,0 -37.61404,17.87134 -37.61404,40.04678 0,22.08187 16.84211,39.95322 37.61404,39.95322 15.15789,0 31.43859,-8.32749 35.64912,-27.88304 z"/>
		<path d="m 361.39546,191.35672 c 0,22.54971 16.09357,40.04679 38.92398,40.04679 22.17544,0 38.83041,-17.49708 38.83041,-40.04679 0,-22.5497 -17.40351,-39.95321 -38.83041,-39.95321 -21.23977,0 -38.92398,17.40351 -38.92398,39.95321 z m 18.99416,0 c 0,-11.50877 6.36257,-23.01754 19.92982,-23.01754 13.66082,0 19.83626,11.50877 19.83626,23.01754 0,11.50878 -5.80117,23.01755 -19.83626,23.01755 -14.40936,0 -19.92982,-11.50877 -19.92982,-23.01755 z"/>
		<path d="M 469.50219,152.80702 H 451.91154 V 230 h 44.16375 v -15.4386 h -26.5731 z"/>
		<path d="M 509.72587,152.80702 V 230 h 22.36258 c 21.23976,0 38.92398,-16.09357 38.92398,-38.64328 0,-22.45614 -17.77778,-38.5497 -38.92398,-38.5497 z m 17.59065,61.47368 v -45.75439 h 2.71345 c 13.09941,0 21.9883,10.0117 21.9883,22.92398 -0.0936,12.91228 -8.98245,22.83041 -21.9883,22.83041 z"/>
		<path d="M 627.96855,152.80702 H 583.80481 V 230 h 44.16374 v -15.4386 h -26.5731 v -15.53216 h 25.45029 v -15.4386 h -25.45029 v -15.34503 h 26.5731 z"/>
		<path d="m 660.67179,182.09357 h 0.18713 L 691.54898,230 h 17.59065 v -77.19298 h -17.59065 v 47.90643 h -0.18713 L 660.67179,152.80702 H 643.08115 V 230 h 17.59064 z"/>
		<path d="M 773.55921,199.02924 H 798.4481 V 230 h 17.59064 V 152.80702 H 798.4481 v 30.78362 H 773.55921 V 152.80702 H 755.96857 V 230 h 17.59064 z"/>
		<path d="m 828.77849,191.35672 c 0,22.54971 16.09357,40.04679 38.92398,40.04679 22.17544,0 38.83041,-17.49708 38.83041,-40.04679 0,-22.5497 -17.40351,-39.95321 -38.83041,-39.95321 -21.23977,0 -38.92398,17.40351 -38.92398,39.95321 z m 18.99415,0 c 0,-11.50877 6.36257,-23.01754 19.92983,-23.01754 13.66082,0 19.83625,11.50877 19.83625,23.01754 0,11.50878 -5.80117,23.01755 -19.83625,23.01755 -14.40936,0 -19.92983,-11.50877 -19.92983,-23.01755 z"/>
		<path d="m 978.61625,152.80702 h -17.59064 v 44.63158 c 0,12.91228 -3.92982,16.65497 -12.53801,16.65497 -8.60819,0 -12.53801,-3.74269 -12.53801,-16.65497 v -44.63158 h -17.59065 v 49.77777 c 0,19.08772 10.47954,28.81872 30.12866,28.81872 19.64912,0 30.12865,-9.731 30.12865,-28.81872 z"/>
		<path d="M 993.92181,152.80702 V 230 h 17.59069 V 199.49708 L 1035.0914,230 h 22.3626 l -26.5731,-31.90643 c 9.4503,-2.99416 15.8128,-10.76024 15.8128,-22.36258 0,-15.15789 -10.8538,-22.92397 -25.1695,-22.92397 z m 17.59069,34.24561 V 166.8421 h 2.0584 c 6.6433,0 14.5965,0.46784 14.5965,10.10527 0,9.63742 -7.9532,10.10526 -14.5965,10.10526 z"/>
		<path d="m 1094.435,151.40351 c -12.4445,0 -25.1696,9.16959 -25.1696,23.57895 0,8.04678 5.4269,15.25146 14.6901,19.83625 9.1695,4.5848 17.4035,7.11111 17.4035,12.72515 0,7.20468 -7.2983,7.57895 -11.1345,7.57895 -8.6082,0 -18.9006,-8.70176 -18.9006,-8.70176 l -8.7953,14.78363 c 0,0 10.9473,10.19883 29.0058,10.19883 15.0643,0 29.0994,-6.45614 29.0994,-24.88889 0,-10.10526 -9.4503,-17.40351 -18.0585,-21.05263 -8.7953,-3.74269 -16.0935,-6.83041 -16.0935,-11.13451 0,-4.21052 3.1813,-6.92397 9.1696,-6.92397 7.9532,0 15.6257,5.33333 15.6257,5.33333 l 7.1111,-14.03509 c 0,0 -9.9181,-7.29824 -23.9532,-7.29824 z"/>
	</g>
	<g aria-label="ERNEST BRAMAH">
		<path d="M 396.7522,332.10526 H 363.62939 V 390 h 33.12281 v -11.57895 h -19.92983 v -11.64912 h 19.08772 v -11.57895 h -19.08772 v -11.50877 h 19.92983 z"/>
		<path d="M 409.33663,332.10526 V 390 h 13.19298 V 367.12281 L 440.21382,390 h 16.77193 l -19.92983,-23.92982 c 7.08772,-2.24562 11.85965,-8.07018 11.85965,-16.77193 0,-11.36842 -8.14035,-17.19299 -18.87719,-17.19299 z m 13.19298,25.68421 v -15.15789 h 1.54386 c 4.98245,0 10.94737,0.35088 10.94737,7.57895 0,7.22807 -5.96492,7.57894 -10.94737,7.57894 z"/>
		<path d="m 477.83115,354.07018 h 0.14035 L 500.98904,390 h 13.19298 v -57.89474 h -13.19298 v 35.92983 h -0.14035 L 477.83115,332.10526 H 464.63816 V 390 h 13.19299 z"/>
		<path d="m 560.73794,332.10526 h -33.1228 V 390 h 33.1228 v -11.57895 h -19.92982 v -11.64912 h 19.08772 v -11.57895 h -19.08772 v -11.50877 h 19.92982 z"/>
		<path d="m 594.6557,331.05263 c -9.33333,0 -18.87719,6.8772 -18.87719,17.68421 0,6.03509 4.07017,11.4386 11.01754,14.8772 6.87719,3.43859 13.05263,5.33333 13.05263,9.54385 0,5.40351 -5.47368,5.68422 -8.35087,5.68422 -6.45615,0 -14.17544,-6.52632 -14.17544,-6.52632 l -6.59649,11.08772 c 0,0 8.21052,7.64912 21.75438,7.64912 11.29825,0 21.82456,-4.8421 21.82456,-18.66666 0,-7.57895 -7.08772,-13.05264 -13.54386,-15.78948 -6.59649,-2.80702 -12.07017,-5.12281 -12.07017,-8.35088 0,-3.15789 2.38596,-5.19298 6.87719,-5.19298 5.96491,0 11.7193,4 11.7193,4 l 5.33333,-10.52631 c 0,0 -7.43859,-5.47369 -17.96491,-5.47369 z"/>
		<path d="m 618.39582,343.68421 h 13.75439 V 390 h 13.19298 v -46.31579 h 13.75439 v -11.57895 h -40.70176 z"/>
		<path d="M 693.03729,332.10526 V 390 h 21.96491 c 12,0 18.94737,-6.59649 18.94737,-16.14035 0,-9.33333 -5.12281,-13.33333 -12.35088,-14.59649 4.91228,-2.52632 7.22807,-7.08772 7.22807,-12.42105 0,-11.01755 -7.85965,-14.73685 -17.82456,-14.73685 z m 13.19298,22.66667 V 342.2807 h 1.05263 c 5.75439,0 8.77193,1.75439 8.77193,5.89474 0,4.8421 -3.08772,6.59649 -8.77193,6.59649 z m 0,25.05263 v -13.68421 h 4.14035 c 6.24561,0 9.68421,1.89474 9.68421,7.22807 0,4.5614 -3.4386,6.45614 -9.68421,6.45614 z"/>
		<path d="M 744.77523,332.10526 V 390 h 13.19298 V 367.12281 L 775.65243,390 h 16.77192 l -19.92982,-23.92982 c 7.08772,-2.24562 11.85965,-8.07018 11.85965,-16.77193 0,-11.36842 -8.14035,-17.19299 -18.87719,-17.19299 z m 13.19298,25.68421 v -15.15789 h 1.54386 c 4.98246,0 10.94737,0.35088 10.94737,7.57895 0,7.22807 -5.96491,7.57894 -10.94737,7.57894 z"/>
		<path d="M 829.48025,332.10526 H 817.26973 L 793.90131,390 h 14.17544 l 4.2807,-11.57895 h 22.03509 L 838.67324,390 h 14.17544 z m 0.42106,34.73685 H 816.84868 L 823.30482,350 h 0.14035 z"/>
		<path d="m 907.89803,390 h 13.19299 l -5.19299,-57.89474 h -14.03508 l -12.84211,33.40351 -12.8421,-33.40351 H 862.14365 L 856.95067,390 h 13.19298 l 2.73684,-34.31579 h 0.35088 l 11.85965,33.96491 h 7.85965 l 11.85964,-33.96491 h 0.35088 z"/>
		<path d="M 960.7796,332.10526 H 948.56908 L 925.20065,390 h 14.17544 l 4.2807,-11.57895 h 22.03509 L 969.97258,390 h 14.17544 z m 0.42105,34.73685 H 948.14802 L 954.60416,350 h 0.14035 z"/>
		<path d="m 1004.5307,366.77193 h 18.6667 V 390 h 13.1929 v -57.89474 h -13.1929 v 23.08772 h -18.6667 v -23.08772 h -13.193 V 390 h 13.193 z"/>
	</g>
</svg>
